<mxfile host="app.diagrams.net" modified="2023-03-20T23:14:50.936Z" agent="5.0 (Windows NT 10.0; Win64; x64) AppleWebKit/537.36 (KHTML, like Gecko) Chrome/110.0.0.0 Safari/537.36 OPR/96.0.0.0" etag="zs-AcsY7gMkcD08xmkO_" version="21.0.8" type="github">
  <diagram name="PÃ¡gina-1" id="KPXgi-UX2MajdnbyNQGS">
    <mxGraphModel dx="1161" dy="1807" grid="1" gridSize="10" guides="1" tooltips="1" connect="1" arrows="1" fold="1" page="1" pageScale="1" pageWidth="827" pageHeight="1169" math="0" shadow="0">
      <root>
        <mxCell id="0" />
        <mxCell id="1" parent="0" />
        <mxCell id="w-20aDRWs6tAkl76wKMx-5" value="" style="edgeStyle=orthogonalEdgeStyle;rounded=0;orthogonalLoop=1;jettySize=auto;html=1;fillColor=#99FF99;" edge="1" parent="1" source="w-20aDRWs6tAkl76wKMx-1" target="w-20aDRWs6tAkl76wKMx-4">
          <mxGeometry relative="1" as="geometry" />
        </mxCell>
        <mxCell id="w-20aDRWs6tAkl76wKMx-1" value="home" style="rounded=0;whiteSpace=wrap;html=1;fillColor=#99FF99;" vertex="1" parent="1">
          <mxGeometry y="80" width="160" height="80" as="geometry" />
        </mxCell>
        <mxCell id="w-20aDRWs6tAkl76wKMx-16" style="edgeStyle=orthogonalEdgeStyle;rounded=0;orthogonalLoop=1;jettySize=auto;html=1;exitX=0.5;exitY=1;exitDx=0;exitDy=0;entryX=0.5;entryY=1;entryDx=0;entryDy=0;fillColor=#99FF99;" edge="1" parent="1" source="w-20aDRWs6tAkl76wKMx-3" target="w-20aDRWs6tAkl76wKMx-1">
          <mxGeometry relative="1" as="geometry">
            <Array as="points">
              <mxPoint x="440" y="240" />
              <mxPoint x="80" y="240" />
            </Array>
          </mxGeometry>
        </mxCell>
        <mxCell id="w-20aDRWs6tAkl76wKMx-17" value="se status do &lt;br&gt;chamado = concluido" style="edgeLabel;html=1;align=center;verticalAlign=middle;resizable=0;points=[];fillColor=#99FF99;" vertex="1" connectable="0" parent="w-20aDRWs6tAkl76wKMx-16">
          <mxGeometry x="-0.8154" y="-1" relative="1" as="geometry">
            <mxPoint as="offset" />
          </mxGeometry>
        </mxCell>
        <mxCell id="w-20aDRWs6tAkl76wKMx-3" value="chamado" style="rounded=0;whiteSpace=wrap;html=1;fillColor=#99FF99;" vertex="1" parent="1">
          <mxGeometry x="360" y="80" width="160" height="80" as="geometry" />
        </mxCell>
        <mxCell id="w-20aDRWs6tAkl76wKMx-6" style="edgeStyle=orthogonalEdgeStyle;rounded=0;orthogonalLoop=1;jettySize=auto;html=1;entryX=0;entryY=0.5;entryDx=0;entryDy=0;fillColor=#99FF99;" edge="1" parent="1" source="w-20aDRWs6tAkl76wKMx-4" target="w-20aDRWs6tAkl76wKMx-3">
          <mxGeometry relative="1" as="geometry" />
        </mxCell>
        <mxCell id="w-20aDRWs6tAkl76wKMx-4" value="abertura_chamado" style="ellipse;whiteSpace=wrap;html=1;rounded=0;fillColor=#99FF99;" vertex="1" parent="1">
          <mxGeometry x="200" y="80" width="120" height="80" as="geometry" />
        </mxCell>
        <mxCell id="w-20aDRWs6tAkl76wKMx-7" value="conexao com BD" style="ellipse;whiteSpace=wrap;html=1;rounded=0;fillColor=#99FF99;" vertex="1" parent="1">
          <mxGeometry x="200" y="-160" width="120" height="80" as="geometry" />
        </mxCell>
        <mxCell id="w-20aDRWs6tAkl76wKMx-14" value="atualizar_tabela" style="ellipse;whiteSpace=wrap;html=1;rounded=0;fillColor=#99FF99;" vertex="1" parent="1">
          <mxGeometry x="560" y="80" width="120" height="80" as="geometry" />
        </mxCell>
        <mxCell id="w-20aDRWs6tAkl76wKMx-20" value="" style="endArrow=none;dashed=1;html=1;dashPattern=1 3;strokeWidth=2;rounded=0;exitX=0.5;exitY=0;exitDx=0;exitDy=0;entryX=0;entryY=0.5;entryDx=0;entryDy=0;" edge="1" parent="1" source="w-20aDRWs6tAkl76wKMx-1" target="w-20aDRWs6tAkl76wKMx-7">
          <mxGeometry width="50" height="50" relative="1" as="geometry">
            <mxPoint x="170" y="-80" as="sourcePoint" />
            <mxPoint x="220" y="-130" as="targetPoint" />
            <Array as="points">
              <mxPoint x="80" y="-120" />
            </Array>
          </mxGeometry>
        </mxCell>
        <mxCell id="w-20aDRWs6tAkl76wKMx-21" value="" style="endArrow=none;dashed=1;html=1;dashPattern=1 3;strokeWidth=2;rounded=0;exitX=0.5;exitY=0;exitDx=0;exitDy=0;" edge="1" parent="1" target="w-20aDRWs6tAkl76wKMx-7">
          <mxGeometry width="50" height="50" relative="1" as="geometry">
            <mxPoint x="260" y="80" as="sourcePoint" />
            <mxPoint x="260" y="-80" as="targetPoint" />
            <Array as="points" />
          </mxGeometry>
        </mxCell>
        <mxCell id="w-20aDRWs6tAkl76wKMx-22" value="" style="endArrow=none;dashed=1;html=1;dashPattern=1 3;strokeWidth=2;rounded=0;exitX=0.5;exitY=0;exitDx=0;exitDy=0;entryX=1;entryY=0.5;entryDx=0;entryDy=0;" edge="1" parent="1" source="w-20aDRWs6tAkl76wKMx-3" target="w-20aDRWs6tAkl76wKMx-7">
          <mxGeometry width="50" height="50" relative="1" as="geometry">
            <mxPoint x="270" y="90" as="sourcePoint" />
            <mxPoint x="270" y="-70" as="targetPoint" />
            <Array as="points">
              <mxPoint x="440" y="-120" />
            </Array>
          </mxGeometry>
        </mxCell>
        <mxCell id="w-20aDRWs6tAkl76wKMx-23" value="" style="endArrow=none;dashed=1;html=1;dashPattern=1 3;strokeWidth=2;rounded=0;exitX=1;exitY=0.5;exitDx=0;exitDy=0;entryX=0;entryY=0.5;entryDx=0;entryDy=0;" edge="1" parent="1" source="w-20aDRWs6tAkl76wKMx-3" target="w-20aDRWs6tAkl76wKMx-14">
          <mxGeometry width="50" height="50" relative="1" as="geometry">
            <mxPoint x="450" y="90" as="sourcePoint" />
            <mxPoint x="330" y="-110" as="targetPoint" />
            <Array as="points" />
          </mxGeometry>
        </mxCell>
      </root>
    </mxGraphModel>
  </diagram>
</mxfile>
